<?xml version="1.0" encoding="UTF-8" standalone="no"?>
<!-- Created with Inkscape (http://www.inkscape.org/) -->

<svg
   width="298.41916mm"
   height="297.25024mm"
   viewBox="0 0 298.41916 297.25024"
   version="1.1"
   id="svg1"
   xml:space="preserve"
   inkscape:version="1.3.2 (091e20e, 2023-11-25, custom)"
   sodipodi:docname="Sigil of the First Scales.svg"
   inkscape:export-filename="Sigil of the First Scales.png"
   inkscape:export-xdpi="96"
   inkscape:export-ydpi="96"
   xmlns:inkscape="http://www.inkscape.org/namespaces/inkscape"
   xmlns:sodipodi="http://sodipodi.sourceforge.net/DTD/sodipodi-0.dtd"
   xmlns="http://www.w3.org/2000/svg"
   xmlns:svg="http://www.w3.org/2000/svg"><sodipodi:namedview
     id="namedview1"
     pagecolor="#ffffff"
     bordercolor="#111111"
     borderopacity="1"
     inkscape:showpageshadow="0"
     inkscape:pageopacity="0"
     inkscape:pagecheckerboard="1"
     inkscape:deskcolor="#d1d1d1"
     inkscape:document-units="mm"
     inkscape:zoom="0.66961365"
     inkscape:cx="-250.89094"
     inkscape:cy="308.38678"
     inkscape:window-width="3440"
     inkscape:window-height="1259"
     inkscape:window-x="-9"
     inkscape:window-y="-9"
     inkscape:window-maximized="1"
     inkscape:current-layer="layer1" /><defs
     id="defs1" /><g
     inkscape:label="Layer 1"
     inkscape:groupmode="layer"
     id="layer1"><g
       id="g400"><g
         id="g399"
         transform="translate(-41.043277,5.9247987)"><path
           style="fill:#333333;fill-opacity:1;stroke-width:1.36035"
           d="m 115.82369,43.97473 c -3.3454,-2.938385 -6.72951,-5.583515 -10.57688,-8.267226 -5.545472,-3.868216 -6.981691,-4.95331 -7.122199,-5.380975 -0.448008,-1.363605 5.601009,-2.139712 12.300169,-1.578151 8.0538,0.675113 15.54632,2.775116 21.41565,6.002376 2.21376,1.21724 7.91839,6.344189 7.91839,7.116533 0,0.205343 -3.15841,0.630498 -7.40142,0.996312 -4.75998,0.410383 -8.6427,0.952993 -10.87953,1.520413 -1.91296,0.485262 -3.6438,0.876214 -3.8463,0.868781 -0.2025,-0.0075 -1.01605,-0.582562 -1.80788,-1.278063 z"
           id="path242" /><path
           style="fill:#333333;fill-opacity:1;stroke-width:1.36035"
           d="M 93.508225,57.151433 C 92.778972,56.843802 82.950764,53.060292 77.671447,51.054837 72.607813,49.131314 72.21074,48.300667 75.590445,46.70155 c 2.193031,-1.037639 10.18705,-3.029234 15.071875,-3.754942 7.702357,-1.14429 16.71185,-0.570162 20.40987,1.300616 2.65365,1.342446 2.34962,1.842537 -2.96029,4.869251 -1.668,0.950784 -3.452,1.971647 -3.96443,2.268587 -0.51243,0.29694 -2.28052,1.511692 -3.92909,2.699451 -4.699173,3.385654 -5.301727,3.661054 -6.710155,3.06692 z"
           id="path240" /><path
           style="fill:#333333;fill-opacity:1;stroke-width:1.36035"
           d="m 110.96467,67.705991 c -2.29004,-0.805239 -11.924104,-5.784257 -12.723547,-6.575708 -1.065749,-1.055097 -0.324272,-1.840085 4.707967,-4.984241 5.63624,-3.521538 8.35451,-4.99715 10.76755,-5.845162 2.42828,-0.853367 2.76313,-0.668899 7.29075,4.016449 2.66379,2.756586 3.50127,3.842461 3.28078,4.253811 -0.36218,0.675677 -4.69146,5.433343 -6.66485,7.324337 -2.2541,2.159985 -4.17747,2.682958 -6.65865,1.810514 z"
           id="path238" /><path
           style="fill:#333333;fill-opacity:1;stroke-width:1.36035"
           d="M 72.228622,77.475231 C 71.214666,77.20186 68.9297,76.402683 67.150921,75.699284 65.37214,74.995885 63.814154,74.420377 63.688725,74.420377 c -0.125425,0 -1.363245,-0.507588 -2.750705,-1.12797 -2.900963,-1.297125 -3.165184,-1.946268 -1.352894,-3.323818 1.693941,-1.28759 7.329712,-4.020391 12.128342,-5.881065 8.536157,-3.309907 17.85511,-5.018674 19.111819,-3.504432 0.397173,0.478565 0.123806,0.909411 -1.884062,2.969396 -1.291753,1.325285 -2.879927,3.012809 -3.529274,3.750054 -0.649347,0.737244 -1.345401,1.238612 -1.546783,1.114149 -0.205241,-0.126839 -0.256635,-0.04909 -0.11695,0.176929 0.138295,0.223765 -0.848475,1.810361 -2.217158,3.564899 -1.356501,1.738921 -2.750042,3.594964 -3.096758,4.124542 -0.64634,0.987224 -2.262624,1.754981 -3.605999,1.712897 -0.41587,-0.01306 -1.585727,-0.247356 -2.599684,-0.520727 z"
           id="path235" /><path
           style="fill:#333333;fill-opacity:1;stroke-width:1.36035"
           d="M 89.369067,85.208816 C 80.318928,84.688572 77.90164,84.42852 77.720176,83.955633 c -0.728465,-1.898349 12.437725,-17.61878 15.924572,-19.01394 1.723944,-0.689786 2.109041,-0.595354 7.323632,1.795845 2.32144,1.06452 4.62947,2.090867 5.12895,2.28077 0.49948,0.189902 0.90815,0.575022 0.90815,0.855824 0,0.280801 -1.58028,2.511857 -3.51174,4.957902 -1.93146,2.446045 -4.363924,5.604927 -5.40548,7.019738 -1.76471,2.397116 -3.271032,3.801489 -3.937499,3.671004 -0.155434,-0.03043 -2.307197,-0.171715 -4.781694,-0.31396 z"
           id="path233" /><path
           style="fill:#333333;fill-opacity:1;stroke-width:1.36035"
           d="m 112.36295,93.565775 c -0.47211,-0.357815 -2.55903,-1.679714 -4.63761,-2.937551 -3.49602,-2.115593 -5.9497,-3.820862 -7.1449,-4.965598 -0.801253,-0.767418 -0.21464,-1.983922 2.67191,-5.540929 3.65006,-4.497857 5.53398,-6.475273 5.93373,-6.228212 0.18186,0.112392 0.24337,-0.02309 0.13671,-0.301053 -0.28054,-0.731058 2.08448,-2.668918 3.83126,-3.139277 1.92133,-0.51736 2.90974,-0.160256 5.79007,2.09189 1.25316,0.979856 4.06011,3.042168 6.23767,4.582918 2.17756,1.540749 4.07819,2.97906 4.22363,3.196247 0.59023,0.881409 0.19384,2.220474 -1.34052,4.52848 -1.83856,2.765589 -1.93092,2.854623 -4.76115,4.589643 -8.38084,5.137725 -9.1968,5.445248 -10.9408,4.123442 z"
           id="path230" /><path
           style="fill:#333333;fill-opacity:1;stroke-width:1.36035"
           d="m 59.855078,101.7143 c -1.682658,-0.38162 -5.810784,-0.88949 -9.173614,-1.12862 -5.013253,-0.35648 -6.13363,-0.53547 -6.221938,-0.994017 -0.148851,-0.772926 4.455973,-6.005679 7.784165,-8.845636 4.541526,-3.875303 9.255732,-6.517763 15.318941,-8.586747 3.004239,-1.025156 4.299603,-1.298636 5.506662,-1.162583 0.868088,0.09785 1.68013,0.27969 1.80454,0.4041 0.227882,0.227884 -1.060572,2.814937 -1.901223,3.817412 -0.692805,0.826171 -3.469642,6.2225 -5.37111,10.437878 -3.145285,6.972803 -3.070055,6.842033 -3.909318,6.795333 -0.427749,-0.0238 -2.154447,-0.35551 -3.837105,-0.73712 z"
           id="path225" /><path
           style="fill:#333333;fill-opacity:1;stroke-width:1.36035"
           d="m 67.166064,107.30756 c -0.607381,-1.58281 2.445673,-8.977899 7.145959,-17.30889 0.853113,-1.512095 1.318868,-1.950178 2.389508,-2.247535 1.704629,-0.473441 4.796814,-0.471453 9.450185,0.0061 3.868754,0.39701 5.016993,0.757676 5.016993,1.575859 0,0.269645 -0.865264,2.329026 -1.922807,4.576403 -1.057544,2.247378 -2.691933,5.813673 -3.631978,7.925103 -1.656392,3.72042 -1.760956,3.86084 -3.386114,4.54745 -1.803912,0.76213 -7.877958,1.5142 -12.216096,1.51256 -2.088654,-7.8e-4 -2.666426,-0.11997 -2.84565,-0.58702 z"
           id="path224" /><path
           style="fill:#333333;fill-opacity:1;stroke-width:1.36035"
           d="m 97.107501,112.24056 c -5.875097,-2.26808 -7.190181,-2.93175 -6.617607,-3.33966 0.377458,-0.26891 0.333233,-0.30135 -0.181737,-0.1333 -0.376796,0.12295 -1.077647,-0.0381 -1.570126,-0.36077 -0.78843,-0.5166 -0.862524,-0.75179 -0.651868,-2.06917 0.33097,-2.06977 3.453937,-9.791201 5.703172,-14.100907 1.606968,-3.079071 2.019302,-3.615514 2.852962,-3.71168 1.544159,-0.178125 13.177923,6.215593 12.963743,7.124652 -0.0544,0.230871 0.0741,0.312859 0.2855,0.182194 0.51806,-0.320176 2.87278,1.512604 2.87278,2.236009 0,0.997657 -8.21386,13.534982 -9.67116,14.761692 -1.27712,1.07504 -1.81121,1.02248 -5.985659,-0.58906 z"
           id="path222" /><path
           style="fill:#333333;fill-opacity:1;stroke-width:1.36035"
           d="m 128.14845,117.27412 c -1.34566,-1.34566 -2.03684,-2.2993 -1.86639,-2.5751 0.16002,-0.25892 0.12047,-0.34515 -0.0967,-0.21091 -1.16801,0.72187 -7.58805,-10.27353 -8.33591,-14.27666 -0.37352,-1.999335 0.17803,-3.091556 2.52359,-4.997453 2.26262,-1.838495 5.89692,-4.115882 7.01672,-4.396936 1.17506,-0.29492 1.33726,-0.06346 2.10933,3.010162 1.27304,5.068 5.30844,10.759027 10.39605,14.661297 l 1.39602,1.07077 -2.83572,2.48498 c -1.55966,1.36673 -3.9125,3.58342 -5.22854,4.92596 -1.31604,1.34254 -2.51622,2.44099 -2.66706,2.44099 -0.15084,0 -1.23594,-0.96169 -2.41135,-2.1371 z"
           id="path221" /><path
           id="path211"
           style="fill:#333333;fill-opacity:1;stroke-width:1.36035"
           d="m 127.85473,19.797758 c -0.45747,4.98e-4 -0.75556,0.08319 -0.86351,0.257865 -0.59013,0.954852 7.31505,11.182085 13.60898,17.606678 3.3774,3.447516 5.63514,5.056612 7.12308,5.076692 0.32219,0.0043 0.76962,0.229037 0.99426,0.499711 0.7073,0.852243 -0.47167,1.376168 -3.46439,1.539441 -9.94659,0.542655 -14.11649,0.936557 -18.09192,1.70894 -5.21894,1.013986 -6.47867,1.437099 -6.47867,2.175578 0,0.633688 2.55656,3.841099 5.46943,6.861596 1.14543,1.187757 2.08418,2.455438 2.08618,2.8174 0.002,0.361962 -1.33205,2.114123 -2.96365,3.893302 -3.66872,4.000572 -5.1018,6.193805 -4.62659,7.081738 1.08783,2.03263 9.9072,8.48076 11.31094,8.26978 0.52436,-0.07881 1.20637,-1.22246 2.62051,-4.393014 1.0515,-2.357492 1.82904,-4.421027 1.72755,-4.58525 -0.1015,-0.164226 0.0319,-0.215252 0.29662,-0.113688 0.26468,0.101568 0.8333,-0.143378 1.26349,-0.544153 0.85418,-0.795792 1.37444,-0.9148 1.69963,-0.388606 0.28436,0.460095 -4.3103,11.480674 -5.17591,12.414746 -1.14125,1.231529 -2.47782,4.059438 -2.91558,6.168099 -0.33897,1.632818 -0.30659,2.514617 0.18242,4.93975 0.68722,3.408085 1.33286,4.995534 3.23856,7.966439 1.7507,2.729248 3.68345,4.819888 6.84248,7.400578 4.53614,3.70566 4.78615,3.78397 12.05714,3.76877 4.90295,-0.0103 7.49547,-0.20749 11.69799,-0.88884 4.487,-0.72746 6.6145,-0.87134 12.59717,-0.85214 6.69781,0.0215 10.88989,0.37629 14.39705,1.21801 0.79183,0.19004 2.85595,0.67611 4.5868,1.08004 7.17128,1.67354 12.28061,3.94691 15.67295,6.97425 1.95412,1.74387 2.46098,2.01951 3.71243,2.01951 2.71451,0 7.51043,-2.55248 11.04171,-5.87716 2.22446,-2.09431 6.19807,-7.2519 6.19807,-8.04498 0,-1.28587 -7.56332,-3.58107 -21.67827,-6.578414 -4.91394,-1.043492 -9.8402,-2.653513 -14.67455,-4.795572 -1.79966,-0.797419 -6.13519,-2.387217 -9.36481,-3.433899 -0.69656,-0.225745 -3.28801,-0.5876 -5.75882,-0.804602 -4.74176,-0.416456 -9.24977,-0.04142 -16.00987,1.332735 -3.45204,0.701706 -4.98378,0.792719 -5.19865,0.307991 -0.68761,-1.551176 12.6496,-4.859135 19.59157,-4.859135 4.85048,0 11.85011,1.664018 15.12104,3.594613 1.75998,1.038793 3.66185,1.532639 4.39146,1.140499 0.35612,-0.191405 1.20395,-1.09242 1.88412,-2.001945 0.68014,-0.909525 1.53015,-1.653646 1.88929,-1.653646 0.35912,0 0.62075,0.121797 0.58085,0.270268 -0.0399,0.148469 0.0462,1.259097 0.19172,2.468066 0.30981,2.573927 1.00078,3.400339 3.56825,4.269507 2.1927,0.742299 2.56766,0.527033 4.59042,-2.632397 0.89082,-1.391405 1.78176,-2.48676 1.97973,-2.43396 0.19796,0.05279 0.61584,1.297941 0.92862,2.766756 0.3128,1.468812 0.763,3.032913 1.00046,3.476273 0.62705,1.170693 2.27378,1.892882 4.86947,2.135271 l 2.27944,0.212906 1.69086,-1.667081 c 2.287,-2.254616 2.65366,-2.189785 2.92282,0.515731 0.19452,1.95532 0.2843,2.057231 2.8174,3.201355 1.214,0.54833 3.29956,1.51616 4.63486,2.15077 1.3353,0.63461 2.78766,1.1021 3.22719,1.0387 3.40615,-0.49116 5.26993,-13.114667 3.15639,-21.378541 -0.93373,-3.650855 -3.18824,-7.842691 -5.4777,-10.185425 -3.06978,-3.141208 -6.29104,-4.971463 -14.47663,-8.225338 -4.14915,-1.649338 -8.30762,-3.488798 -9.24078,-4.087605 -2.06322,-1.323965 -3.9691,-3.35056 -6.06837,-6.45232 -3.19777,-4.724848 -6.41721,-8.857121 -8.16901,-10.485148 -1.97293,-1.833532 -3.89671,-2.977612 -4.44107,-2.641182 -0.52672,0.325528 -0.40765,2.173705 0.35864,5.562968 0.3793,1.677685 0.63352,3.106826 0.56482,3.175516 -0.0687,0.06869 -2.04357,-1.848442 -4.38836,-4.260205 C 180.91893,34.531085 162.7942,21.718831 162.7942,24.9592 c 0,1.42307 3.69348,9.678486 6.10608,13.648263 3.16393,5.206014 5.9569,8.382369 8.91264,10.134781 0.83698,0.496228 3.10451,1.466606 5.03897,2.156458 3.79855,1.354608 9.48604,4.19097 12.75581,6.361369 2.42106,1.607035 6.41821,5.804845 6.41821,6.740157 0,1.155167 -0.53493,1.057754 -2.54145,-0.462504 -3.38169,-2.562178 -8.6034,-5.975526 -10.53682,-6.887952 -4.39016,-2.071819 -6.07314,-2.757513 -10.49652,-4.275708 -2.57346,-0.88327 -5.57025,-1.810455 -6.65902,-2.060339 -2.86829,-0.658295 -9.12943,-2.466542 -10.42107,-3.009636 -0.60961,-0.256322 -0.9977,-0.576827 -0.86248,-0.712101 0.35016,-0.350171 4.21146,-0.291002 6.96185,0.106454 1.28909,0.186274 2.47389,0.199852 2.64325,0.03049 0.16937,-0.169364 -0.62564,-1.897053 -1.77354,-3.854029 -3.53344,-6.023935 -7.41724,-9.216956 -17.84955,-14.674039 -8.41288,-4.400734 -19.43356,-8.406593 -22.63583,-8.403106 z m 46.07729,39.609985 c 2.39782,-0.161694 14.36057,5.890426 16.02641,8.268746 0.67926,0.969782 0.19165,1.868499 -1.29553,2.386935 -3.40062,1.185463 -8.49498,-0.578567 -10.94403,-3.789433 -2.51329,-3.295092 -4.44012,-6.441404 -4.13308,-6.748425 0.0689,-0.06895 0.18637,-0.107043 0.34623,-0.117823 z m -22.84977,3.135209 c 0.68683,0 1.06746,0.492708 2.15542,2.789494 0.96508,2.037372 1.86466,3.288111 3.33624,4.640027 1.88329,1.730175 6.63369,4.447791 7.77471,4.447791 0.96175,0 2.34934,1.394374 2.14923,2.159558 -0.10357,0.396093 -0.29109,0.70637 -0.41651,0.68988 -4.45787,-0.586384 -11.12878,-4.096038 -13.36508,-7.031612 -2.05516,-2.697809 -3.59926,-5.470885 -3.59926,-6.463688 0,-0.423773 1.28909,-1.23145 1.96525,-1.23145 z m 73.36038,13.181108 c 1.57808,-0.05196 5.22379,1.823669 6.73241,3.728455 1.0554,1.332554 2.16472,3.543804 2.16472,4.314465 0,0.782204 -1.07167,0.304856 -3.28352,-1.46296 -1.26248,-1.009037 -2.3763,-1.945987 -2.4753,-2.082043 -0.53503,-0.735437 -2.30009,-1.800589 -2.65152,-1.599903 -0.2242,0.128025 -0.28464,0.09731 -0.13436,-0.06821 0.15027,-0.16552 -0.0728,-0.669287 -0.49557,-1.119311 -0.42277,-0.450022 -0.67828,-1.054147 -0.56741,-1.343071 0.0923,-0.240632 0.34638,-0.355429 0.71055,-0.367419 z m -81.50769,5.894731 c 0.28188,0 1.16139,0.737235 1.95441,1.638143 0.793,0.900908 2.79756,2.530813 4.45451,3.622001 1.65694,1.091187 3.01222,2.135845 3.01222,2.321305 0,0.701613 -2.48709,0.295539 -4.57182,-0.746208 -2.47516,-1.236853 -6.22598,-4.470991 -6.22598,-5.368664 0,-0.737192 0.68472,-1.466577 1.37666,-1.466577 z" /><path
           style="fill:#333333;fill-opacity:1;stroke-width:1.36035"
           d="m 61.534736,131.40878 c -0.481464,-0.48146 -0.213587,-2.65529 1.017403,-8.25625 1.431814,-6.51469 2.475243,-10.1007 3.219812,-11.0657 0.434374,-0.56298 1.664105,-0.77544 7.965897,-1.37629 4.098723,-0.39079 7.821894,-0.61775 8.273712,-0.50435 1.394197,0.34992 1.387668,1.79345 -0.032,7.0716 -1.910303,7.10232 -3.07954,10.88638 -3.540191,11.4573 -0.775471,0.9611 -2.738188,1.47324 -8.400599,2.19199 -5.974794,0.7584 -8.106593,0.87915 -8.504043,0.4817 z"
           id="path196" /><path
           style="fill:#333333;fill-opacity:1;stroke-width:1.36035"
           d="m 39.339252,132.05391 c 0,-2.84198 5.294882,-12.17824 9.612509,-16.94937 2.570141,-2.8401 7.625335,-6.94289 8.256264,-6.70078 0.263371,0.10106 0.440308,0.0122 0.393193,-0.19732 -0.04711,-0.20959 0.677439,-0.81114 1.610122,-1.33677 1.344585,-0.75778 1.829105,-0.87364 2.339525,-0.55947 0.973984,0.5995 0.968122,2.01235 -0.02502,6.02836 -0.934815,3.78017 -1.419661,5.85396 -2.772196,11.85725 -0.705381,3.13088 -0.907471,3.58345 -1.808085,4.04918 -0.557668,0.28838 -1.57104,0.52433 -2.251939,0.52433 -2.214143,0 -8.184394,1.41483 -11.40126,2.70188 -3.624327,1.45006 -3.953122,1.49853 -3.953122,0.58271 z"
           id="path193" /><path
           style="fill:#333333;fill-opacity:1;stroke-width:1.36035"
           d="m 119.54056,132.47481 c -6.07209,-4.93706 -13.06611,-11.96432 -13.64771,-13.71258 -0.21753,-0.65388 -0.28791,-1.62568 -0.15641,-2.15956 0.35987,-1.4609 2.70748,-5.51303 3.06573,-5.29163 0.17222,0.10645 0.43034,0.004 0.57358,-0.22788 0.16266,-0.26319 0.10444,-0.32498 -0.15509,-0.16459 -0.93671,0.57892 -0.28556,-0.62296 1.96494,-3.62686 1.30926,-1.74756 2.71334,-3.54088 3.12018,-3.98515 l 0.73971,-0.80778 1.77773,3.32726 c 2.07165,3.87736 5.21903,8.61715 8.42351,12.68536 1.34533,1.70795 2.2694,3.23085 2.27133,3.74322 0.002,0.47509 -0.60885,1.93279 -1.35698,3.23934 -0.74813,1.30655 -1.90377,3.63078 -2.56809,5.16497 -1.38507,3.1987 -2.00825,3.47795 -4.05243,1.81588 z"
           id="path190" /><path
           style="fill:#333333;fill-opacity:1;stroke-width:1.36035"
           d="m 90.352746,135.87665 c -2.918267,-1.63385 -5.893172,-3.43919 -6.6109,-4.01188 l -1.304959,-1.04125 0.225624,-2.37683 c 0.445068,-4.68857 3.861699,-16.95386 4.722685,-16.95386 0.451398,0 3.868716,1.2834 5.76311,2.16439 9.062174,4.21434 9.151694,4.26359 9.376514,5.15935 0.12251,0.48814 0.0642,1.18606 -0.12962,1.55093 -0.46669,0.87862 -2.38462,7.52453 -3.711206,12.85992 -1.210384,4.86801 -1.531933,5.61985 -2.403543,5.61985 -0.341968,0 -3.009435,-1.33678 -5.927701,-2.97062 z"
           id="path188" /><path
           style="fill:#333333;fill-opacity:1;stroke-width:1.36035"
           d="m 117.80329,153.47861 c -0.4949,-0.26545 -1.62867,-0.89448 -2.51949,-1.39783 -0.89082,-0.50334 -3.29306,-1.82826 -5.33832,-2.94425 -3.45136,-1.88322 -7.03633,-4.05271 -8.96877,-5.42758 -1.44562,-1.02851 -0.92351,-4.66303 2.24952,-15.65949 1.28744,-4.46175 1.38761,-4.57358 3.01812,-3.36953 2.19369,1.61994 3.62379,3.10391 3.38888,3.51655 -0.12302,0.21608 -0.0937,0.27534 0.0652,0.13169 0.4037,-0.36498 4.55796,3.30452 4.26949,3.77128 -0.12929,0.2092 -0.0744,0.28106 0.12195,0.1597 0.19637,-0.12135 0.90975,0.25195 1.5853,0.82958 0.67555,0.57763 1.05821,1.05682 0.85035,1.06486 -0.20785,0.008 -0.60496,-0.18783 -0.88245,-0.43528 -0.43099,-0.38432 -0.43307,-0.3557 -0.0143,0.19634 0.26962,0.35544 0.71532,0.55987 0.99045,0.4543 0.27513,-0.10558 1.47121,0.57541 2.65795,1.51331 1.83564,1.45072 2.13171,1.84342 1.98345,2.63078 -0.38507,2.04494 -1.27522,8.95722 -1.48755,11.55121 -0.27733,3.38815 -0.68884,4.10145 -1.96978,3.41436 z"
           id="path186" /><path
           style="fill:#333333;fill-opacity:1;stroke-width:1.36035"
           d="m 58.145426,158.60049 c -1.275513,-0.3683 -1.363857,-0.69886 -0.806181,-3.01663 0.314957,-1.30899 1.814126,-10.19029 2.900492,-17.18294 0.238044,-1.53222 0.643668,-2.96086 0.901385,-3.17475 0.432509,-0.35895 12.836464,-2.13362 14.932775,-2.13648 0.507062,-6.9e-4 1.261715,0.31531 1.677008,0.70221 0.832041,0.77516 0.834294,1.11864 0.06028,9.19453 -1.381206,14.4112 -1.243357,14.0001 -4.891568,14.58764 -1.982161,0.3192 -12.988381,1.4608 -13.424464,1.3924 -0.09898,-0.0155 -0.706356,-0.18022 -1.349724,-0.36598 z"
           id="path183" /><path
           style="fill:#333333;fill-opacity:1;stroke-width:1.36035"
           d="m 38.015976,162.21497 c -1.613293,-1.61329 6.257069,-16.07879 13.853163,-25.46172 1.493299,-1.84457 3.046223,-3.58569 3.450943,-3.86917 0.651997,-0.45668 0.811411,-0.43985 1.398881,0.14762 0.635413,0.63541 0.638807,0.82656 0.08149,4.58902 -1.132071,7.64261 -2.71837,16.53715 -3.131946,17.56112 -0.29573,0.7322 -0.956706,1.27282 -2.245227,1.83636 -1.004361,0.43926 -4.273237,1.87541 -7.264167,3.19144 -2.990931,1.31604 -5.509517,2.3928 -5.596862,2.3928 -0.08735,0 -0.333165,-0.17436 -0.54627,-0.38747 z"
           id="path178" /><path
           style="fill:#333333;fill-opacity:1;stroke-width:1.36035"
           d="m 227.57151,162.33249 c -0.40916,-0.74235 -1.31966,-2.32153 -2.02333,-3.50929 -2.38803,-4.03088 -3.07319,-5.52476 -2.76439,-6.02737 0.30069,-0.48943 7.79695,-7.45086 11.05659,-10.26777 0.99637,-0.86105 2.12883,-1.52123 2.60947,-1.52123 0.96338,0 0.97368,0.0234 0.50899,1.15283 -0.18709,0.45472 -1.09241,3.17528 -2.01182,6.04571 -1.79456,5.60264 -4.69726,13.80546 -5.25223,14.84243 -0.53885,1.00684 -1.31893,0.74405 -2.12328,-0.71531 z"
           id="path174" /><path
           style="fill:#333333;fill-opacity:1;stroke-width:1.36035"
           d="m 173.29721,163.43414 c -0.6868,-1.3032 -3.07914,-7.27621 -5.4508,-13.60911 -3.52647,-9.41649 -3.53696,-9.59139 -0.4577,-7.63629 1.60942,1.02186 13.04184,10.92752 13.04184,11.30015 0,0.81093 -5.74825,10.25646 -6.36433,10.45787 -0.23405,0.0766 -0.58011,-0.15416 -0.76901,-0.51262 z"
           id="path171" /><path
           style="fill:#333333;fill-opacity:1;stroke-width:1.36035"
           d="m 90.412369,163.42448 c -2.05851,-1.09654 -5.038482,-2.54697 -6.622159,-3.22319 -1.583679,-0.67622 -3.081874,-1.49633 -3.329324,-1.82248 -0.247449,-0.32616 -0.449908,-1.53811 -0.449908,-2.69323 0,-3.36697 1.472063,-19.867 1.80326,-20.21235 0.479228,-0.49971 2.307807,0.30149 7.729394,3.38669 7.434178,4.23048 6.856525,3.53535 6.777488,8.15579 -0.0627,3.66546 -0.602687,12.07001 -1.039976,16.18659 -0.108869,1.02489 -0.405924,1.93958 -0.661785,2.03775 -0.255334,0.0979 -2.148479,-0.71903 -4.20699,-1.81557 z"
           id="path168" /><path
           style="fill:#333333;fill-opacity:1;stroke-width:1.36035"
           d="m 160.73771,175.47351 c -5.67198,-7.45895 -8.02153,-10.86821 -8.02153,-11.63949 0,-0.89305 1.38396,-0.56194 5.335,1.27643 4.21456,1.96098 10.45869,5.22331 10.96333,5.72795 0.38253,0.38253 -0.27996,1.73653 -2.70641,5.53123 -0.98101,1.5342 -2.00508,2.78943 -2.27572,2.78943 -0.27064,0 -1.75325,-1.65848 -3.29467,-3.68555 z"
           id="path165" /><path
           style="fill:#333333;fill-opacity:1;stroke-width:1.36035"
           d="m 239.20037,180.14887 c -1.48398,-1.61623 -5.13016,-7.43715 -4.95102,-7.90401 0.29929,-0.77991 16.86003,-8.94516 19.15636,-9.445 1.02017,-0.22206 1.16975,-0.16089 1.16975,0.47841 0,1.40624 -10.79961,14.91584 -11.65987,14.58574 -0.27765,-0.10652 -0.61059,-0.0226 -0.73988,0.18661 -0.14306,0.23148 -0.0165,0.29645 0.32352,0.16601 0.82715,-0.31742 0.6871,0.0511 -0.55848,1.4698 -1.30628,1.48777 -1.73283,1.55976 -2.74038,0.46244 z"
           id="path160" /><path
           style="fill:#333333;fill-opacity:1;stroke-width:1.36035"
           d="m 119.29967,181.47143 c -0.85965,-0.45667 -2.64129,-1.46533 -3.95919,-2.24146 -1.31791,-0.77613 -3.368,-1.94294 -4.55576,-2.59291 -4.60209,-2.51835 -10.3436,-6.29876 -11.408778,-7.51193 l -1.115592,-1.27059 0.242947,-6.67522 c 0.285681,-7.84943 0.76748,-12.94168 1.272221,-13.44642 0.343552,-0.34355 7.117732,2.84784 9.389532,4.42349 0.4949,0.34326 2.778,1.61948 5.07357,2.83605 2.29556,1.21658 4.47889,2.54916 4.85185,2.96126 0.4644,0.51317 0.75315,1.56224 0.91624,3.32889 0.13097,1.41877 0.42358,3.79434 0.65023,5.27905 0.56292,3.68753 1.89682,13.7323 1.91186,14.39706 0.0273,1.20551 -0.12222,1.43757 -0.8963,1.39139 -0.44541,-0.0265 -1.51318,-0.42197 -2.37283,-0.87866 z"
           id="path156" /><path
           style="fill:#333333;fill-opacity:1;stroke-width:1.36035"
           d="m 66.513723,185.0596 c -2.361595,-0.89654 -8.447508,-2.88515 -11.337693,-3.70465 -1.484698,-0.42098 -2.887731,-1.01786 -3.117849,-1.32639 -0.329472,-0.44173 -0.192886,-1.22487 0.642624,-3.68462 0.583563,-1.71802 1.631164,-5.31023 2.328004,-7.98268 0.791652,-3.03608 1.514471,-5.07099 1.926664,-5.42405 0.887405,-0.7601 4.358964,-1.29541 11.801786,-1.81982 8.551673,-0.60253 8.23182,-0.95663 6.543352,7.24387 -1.346441,6.53937 -3.858867,14.07057 -5.433269,16.28669 -0.797202,1.12213 -1.314753,1.18566 -3.353619,0.41165 z"
           id="path154" /><path
           style="fill:#333333;fill-opacity:1;stroke-width:1.36035"
           d="m 21.816976,193.10624 c -0.388461,-0.60629 -1.181759,-2.86751 -1.188498,-3.38772 -0.0075,-0.57595 4.593241,-3.81302 5.033,-3.54123 0.19513,0.12066 0.639506,0.0408 0.987503,-0.17732 0.53081,-0.33272 0.487789,-0.35862 -0.267094,-0.16081 -1.162803,0.30468 -1.063133,0.21113 4.638928,-4.3542 2.696265,-2.15875 7.178233,-6.39078 11.337693,-10.70544 6.957735,-7.21734 9.399119,-9.41001 10.037843,-9.01527 0.681914,0.42146 -0.05926,4.30616 -1.87669,9.83635 -1.99981,6.08513 -3.514046,9.56603 -4.565643,10.4954 -1.181152,1.04387 -22.063462,11.46015 -22.975024,11.46015 -0.480559,0 -1.003467,-0.20247 -1.162018,-0.44991 z"
           id="path147" /><path
           style="fill:#333333;fill-opacity:1;stroke-width:1.36035"
           d="m 144.97776,192.47947 c -9.12015,-3.19259 -15.29259,-5.75862 -17.01841,-7.07497 -2.03625,-1.55313 -2.27647,-2.53506 -4.16935,-17.04324 -0.92006,-7.05191 -1.00741,-8.19894 -0.64155,-8.42506 0.19213,-0.11876 1.5335,0.35159 2.98082,1.0452 1.44731,0.69361 3.10656,1.26111 3.68722,1.26111 0.98627,0 1.0176,-0.0415 0.47623,-0.62987 -0.31872,-0.34644 -1.85554,-1.43971 -3.41515,-2.42951 -1.55962,-0.9898 -3.12167,-2.17536 -3.47124,-2.63459 -0.87486,-1.14931 -1.12396,-5.46107 -0.58697,-10.16006 0.71479,-6.25493 0.77202,-6.31141 3.95193,-3.90065 3.23641,2.45359 7.84972,4.88057 8.34181,4.38847 0.1635,-0.1635 -0.84069,-1.18659 -2.23153,-2.27353 -1.39084,-1.08695 -3.73277,-3.21292 -5.20427,-4.72437 -2.26547,-2.32697 -2.67398,-2.9337 -2.66574,-3.9592 0.0114,-1.41939 1.71264,-5.58051 3.10002,-7.58251 l 0.96953,-1.39903 1.46965,1.39119 c 0.8083,0.76516 2.31174,2.07629 3.34097,2.91363 1.30915,1.06507 1.81256,1.7062 1.6757,2.13411 -0.1455,0.45493 -0.10872,0.49055 0.14356,0.13902 0.26754,-0.37281 0.78744,-0.20872 2.46126,0.77682 1.16714,0.6872 2.26008,1.16418 2.42874,1.05994 0.16865,-0.10423 -0.44167,-0.94927 -1.35629,-1.87784 -0.91461,-0.92858 -1.54246,-1.8088 -1.39521,-1.95605 0.14725,-0.14725 0.001,-0.16556 -0.32391,-0.0407 -0.69816,0.26791 -3.31053,-2.8664 -4.87399,-5.84779 l -0.98566,-1.87958 0.71712,-1.33749 c 1.05013,-1.95855 6.51484,-7.31261 8.87697,-8.69722 l 2.0411,-1.19643 3.8977,0.61164 c 5.43316,0.85261 10.16482,0.53234 21.89403,-1.48193 5.77639,-0.99198 16.16047,-0.2649 16.63707,1.16491 0.14958,0.44876 -0.53757,0.71204 -8.35875,3.20259 -10.43783,3.32379 -18.86927,6.79322 -22.40846,9.22078 -0.86258,0.59165 -1.72811,0.93892 -1.9796,0.79426 -0.24579,-0.14137 -0.32553,-0.12322 -0.17722,0.0403 0.14831,0.16355 -0.67303,1.2828 -1.82519,2.48721 -2.2163,2.31679 -4.20527,5.43257 -5.63242,8.82331 -0.72243,1.71641 -1.81281,6.66837 -2.87398,13.05223 -0.14813,0.89106 -0.4574,1.40447 -0.93793,1.55699 -1.55656,0.49403 -1.87843,1.67219 -1.69548,6.20602 0.25902,6.41873 2.34658,13.59077 7.09649,24.38074 2.54988,5.79237 4.02897,10.06929 3.74139,10.81868 -0.29788,0.77626 -1.34259,0.60812 -5.70101,-0.91758 z"
           id="path143" /><path
           style="fill:#333333;fill-opacity:1;stroke-width:1.36035"
           d="m 85.94977,195.78651 c -4.085256,-2.28306 -10.707914,-6.71229 -11.231759,-7.51177 -0.683927,-1.04382 -0.48848,-2.33946 1.619438,-10.73534 0.795212,-3.16736 1.830195,-7.78342 2.29996,-10.25792 l 0.854117,-4.49908 1.232378,0.10121 c 2.87561,0.23621 11.98115,5.13887 15.055983,8.10653 1.398159,1.34943 1.40211,1.28896 -0.520382,7.9646 -2.887369,10.02605 -5.848155,17.56547 -6.970211,17.74913 -0.296939,0.0486 -1.349725,-0.36422 -2.339524,-0.91737 z"
           id="path138" /><path
           style="fill:#333333;fill-opacity:1;stroke-width:1.36035"
           d="m 123.33256,221.86504 c -4.89675,-3.37193 -8.21835,-5.96345 -8.12982,-6.34289 0.0544,-0.23315 -0.0742,-0.31692 -0.28577,-0.18618 -0.36245,0.22401 -1.85149,-0.55708 -2.73062,-1.43237 -0.21891,-0.21794 -2.52264,-1.83034 -5.1194,-3.58309 -2.59677,-1.75274 -4.61969,-3.35139 -4.49538,-3.55252 0.13518,-0.21873 0.0453,-0.25399 -0.22374,-0.0877 -0.26163,0.16169 -0.86531,-0.0292 -1.44324,-0.45656 -0.54641,-0.40397 -2.596096,-1.83028 -4.554847,-3.16956 -1.958751,-1.33927 -3.680359,-2.60699 -3.825797,-2.81715 -0.555932,-0.80335 -0.23024,-2.82562 0.973158,-6.04252 0.686738,-1.83578 1.750499,-4.95745 2.363912,-6.93704 3.266333,-10.54106 3.760339,-11.87655 4.439774,-12.00242 0.84807,-0.15712 2.84535,0.71674 6.52473,2.85474 1.58368,0.92024 4.21328,2.37503 5.84355,3.23287 2.05232,1.07993 2.82735,1.65873 2.51949,1.8816 -0.29956,0.21685 -0.23067,0.25253 0.21112,0.10937 0.81792,-0.26512 6.8929,2.95082 8.25001,4.36733 1.26841,1.32394 1.7727,3.44975 2.96858,12.51392 0.94395,7.15474 0.56442,20.96688 -0.61566,22.40544 -0.52695,0.64237 -0.71968,0.58785 -2.67005,-0.75519 z"
           id="path125" /><path
           style="fill:#333333;fill-opacity:1;stroke-width:1.36035"
           d="m 42.166092,228.33862 c -3.267067,-3.94182 -4.034382,-4.95674 -6.840375,-9.04772 -3.802663,-5.54405 -5.301861,-8.19941 -4.268904,-7.56101 0.20795,0.12856 0.26192,-0.0248 0.129873,-0.36886 -0.160429,-0.41807 -0.302199,-0.46536 -0.489006,-0.16309 -0.535152,0.86589 -6.475355,-11.30604 -6.475355,-13.2685 0,-1.20545 0.117997,-1.27066 15.116925,-8.35244 10.133234,-4.78443 9.541657,-4.52744 9.218483,-4.00454 -0.17121,0.27703 -0.0601,0.34114 0.331061,0.19104 0.43553,-0.16712 0.473592,-0.2971 0.146245,-0.49942 -0.679573,-0.42 1.544888,-1.42597 3.15319,-1.42597 1.847266,0 9.42295,2.57365 12.494193,4.24457 1.368302,0.74444 2.802449,1.77494 3.186994,2.28999 0.669194,0.89631 0.672916,0.9918 0.08679,2.22696 -0.336808,0.70977 -1.695243,2.55157 -3.018745,4.09289 -5.339015,6.21771 -7.039244,8.51574 -11.318363,15.29788 -1.898031,3.00827 -2.950544,5.14272 -5.981506,12.13019 -1.495714,3.44817 -2.905106,6.33098 -3.131981,6.40623 -0.226876,0.0752 -1.279661,-0.90944 -2.339523,-2.1882 z"
           id="path114" /><path
           style="fill:#333333;fill-opacity:1;stroke-width:1.36035"
           d="m 150.7366,242.30506 c -1.9796,-1.87869 -3.55477,-3.58583 -3.50038,-3.79365 0.0544,-0.20782 -0.068,-0.27472 -0.27192,-0.14867 -0.20396,0.12611 -1.10675,-0.37384 -2.00618,-1.11085 -1.23163,-1.00923 -1.51991,-1.42301 -1.16777,-1.67609 0.33346,-0.23968 0.27816,-0.27459 -0.19283,-0.12175 -0.45369,0.14724 -1.83531,-0.60256 -4.41412,-2.39556 -2.06455,-1.43543 -4.03491,-2.77516 -4.37858,-2.97716 -2.19946,-1.29281 -3.69983,-2.41634 -4.40436,-3.29819 -0.79634,-0.99673 -0.80456,-1.10931 -0.49475,-6.77241 0.52474,-9.59175 0.32999,-17.02594 -0.57516,-21.95553 -0.43618,-2.37552 -0.85891,-4.80503 -0.9394,-5.3989 -0.0805,-0.59389 -0.24636,-1.52175 -0.36862,-2.06192 l -0.22228,-0.98213 2.47,0.84422 c 5.92895,2.02644 17.01135,6.46548 16.83875,6.74473 -0.10393,0.16822 0.0339,0.22031 0.3064,0.11576 0.70104,-0.26901 3.53318,1.02934 4.46002,2.0446 0.90968,0.9965 1.54404,3.11736 2.78512,9.3115 1.45027,7.23826 1.82467,11.71724 1.77511,21.23568 -0.0505,9.69089 -0.63559,15.59165 -1.55991,15.7308 -0.29693,0.0448 -2.15956,-1.45581 -4.13914,-3.33448 z"
           id="path104" /><path
           style="fill:#333333;fill-opacity:1;stroke-width:1.36035"
           d="m 220.9499,249.89621 c -0.64338,-2.2476 -2.72703,-13.89651 -2.72703,-15.24581 0,-1.30611 0.95785,-3.00161 1.7074,-3.02233 1.39397,-0.0385 1.85154,-0.16091 1.67422,-0.44781 -0.1023,-0.1655 -0.50008,-0.13277 -0.88399,0.0726 -1.38863,0.74317 -0.59775,-0.23579 1.89949,-2.35121 5.84574,-4.95196 9.49268,-7.73884 9.99994,-7.64166 0.75391,0.14442 0.59848,1.77166 -0.55131,5.7719 -2.45573,8.5437 -8.40355,22.98504 -10.01874,24.32552 -0.47559,0.39471 -0.62584,0.19509 -1.09998,-1.46125 z"
           id="path95" /><path
           style="fill:#333333;fill-opacity:1;stroke-width:1.36035"
           d="m 179.04052,251.48711 c -0.60931,-1.14367 -5.79782,-13.96079 -7.92364,-19.57373 -1.58477,-4.18437 -3.28377,-9.92253 -3.28377,-11.09054 0,-0.40665 0.22827,-0.73935 0.50726,-0.73935 0.69982,0 4.66707,3.36913 10.6061,9.00707 l 5.00408,4.7504 -0.1724,1.48956 c -0.17249,1.49029 -0.94153,5.61883 -1.55131,8.32818 -1.61608,7.18042 -2.0009,8.45828 -2.54715,8.45828 -0.16697,0 -0.4546,-0.28345 -0.63917,-0.62987 z"
           id="path88" /><path
           style="fill:#333333;fill-opacity:1;stroke-width:1.36035"
           d="m 57.442113,243.82244 c -4.298788,-3.72024 -8.289802,-7.83526 -8.715656,-8.98644 -0.727681,-1.96711 1.913776,-10.45547 5.20932,-16.74024 2.811901,-5.36244 7.173888,-11.91337 6.141896,-9.22404 -0.130445,0.33994 -0.06547,0.46658 0.165993,0.32352 0.209187,-0.12923 0.287757,-0.47634 0.174597,-0.77122 -0.239384,-0.62382 0.486226,-1.73013 3.731845,-5.68975 4.675125,-5.70361 8.173574,-9.44866 9.101643,-9.74322 1.592339,-0.50538 13.98703,6.90943 14.481909,8.66344 0.111699,0.39592 0.306873,3.88318 0.433705,7.74949 0.285066,8.68974 0.346197,8.5203 -4.482947,12.42671 -1.921412,1.55429 -4.606222,3.80524 -5.966244,5.0021 -4.739784,4.1712 -10.879745,12.20206 -13.893444,18.17216 -0.777103,1.53943 -1.305801,2.18028 -1.798732,2.18028 -0.383972,0 -2.446721,-1.51326 -4.583885,-3.36279 z"
           id="path76" /><path
           style="fill:#333333;fill-opacity:1;stroke-width:1.36035"
           d="m 212.09388,229.36678 c -3.62592,4.80296 -3.96385,5.58941 -4.79433,11.15774 -1.9395,13.00439 -3.16394,19.32464 -4.58582,23.67095 -1.21636,3.71808 -2.12546,4.66269 -2.93884,3.05361 -1.04957,-2.07634 -4.27593,-19.44354 -5.12116,-27.56671 -0.37091,-3.56478 -1.52147,-6.25893 -4.34237,-10.16815"
           id="path42"
           sodipodi:nodetypes="cssssc" /><path
           style="fill:#333333;fill-opacity:1;stroke-width:1.36035"
           d="m 110.46887,265.26693 c -0.28286,-0.54699 -0.62645,-1.80225 -0.76353,-2.78943 -0.53258,-3.83545 -2.42398,-11.8108 -3.76668,-15.88275 -3.15527,-9.56884 -6.510511,-16.72919 -11.079739,-23.645 -1.329508,-2.01231 -2.64434,-4.14463 -2.921848,-4.73851 -0.595454,-1.2743 -1.003851,-13.03095 -0.47922,-13.79542 0.259652,-0.37837 0.72344,-0.23491 2.222451,0.68744 4.546547,2.79752 17.977196,12.18592 25.636176,17.92042 5.82229,4.35931 5.99658,4.65022 5.37238,8.96735 -0.53978,3.73336 -2.77151,12.14892 -4.74524,17.89376 -2.90707,8.46146 -7.07719,16.37669 -8.62801,16.37669 -0.18284,0 -0.56388,-0.44756 -0.84674,-0.99455 z"
           id="path37" /><path
           style="fill:#333333;fill-opacity:1;stroke-width:1.36035"
           d="m 100.34684,268.27059 c -9.36077,-3.10054 -20.749462,-8.6905 -27.685321,-13.58892 -6.702831,-4.73384 -7.147196,-5.5303 -5.294459,-9.4895 1.345299,-2.87483 2.506699,-4.56462 2.949294,-4.29108 0.180556,0.11155 0.24428,-0.0161 0.141611,-0.28357 -0.248011,-0.6463 4.762571,-6.61255 8.529025,-10.15577 5.056337,-4.75664 9.949724,-8.47127 11.159425,-8.47127 0.84922,0 3.278373,3.69151 5.887952,8.94774 5.175143,10.42381 9.241553,22.88522 10.366953,31.76925 0.59182,4.67188 0.38046,6.94263 -0.65558,7.04312 -0.39592,0.0384 -2.82542,-0.6276 -5.3989,-1.48 z"
           id="path31" /><path
           style="fill:#333333;fill-opacity:1;stroke-width:1.36035"
           d="m 132.56029,276.1487 c -0.29694,-0.0592 -2.24055,-0.30107 -4.31912,-0.53765 -4.68467,-0.53319 -9.84313,-1.55868 -11.82065,-2.34993 -1.32827,-0.53148 -1.49664,-0.73122 -1.49664,-1.77555 0,-1.08736 0.36916,-2.25047 1.60087,-5.04385 5.8977,-13.37529 8.18631,-19.93345 10.61358,-30.41381 1.42366,-6.14703 1.39357,-6.09679 3.15008,-5.25917 1.89548,0.90389 7.63836,4.72703 11.06055,7.36319 6.53381,5.0331 12.447,11.28255 12.447,13.1548 0,1.08459 -1.55955,6.94659 -2.83493,10.65589 -2.4379,7.09033 -5.15333,13.07333 -6.29699,13.87438 -0.5793,0.40576 -1.95644,0.51336 -6.15506,0.48096 -2.97484,-0.023 -5.65175,-0.0902 -5.94869,-0.14926 z"
           id="path20" /></g><path
         id="path19"
         style="fill:#333333;fill-opacity:1;stroke-width:1.36035"
         d="M 104.36687,-0.12509442 C 85.02813,-0.13557742 69.17917,2.5837044 52.35713,8.7983919 34.25026,15.48774 18.68486,24.746275 5.6189005,36.599279 c -5.09530002,4.622279 -5.96555002,5.472526 -10.05107,9.818523 -8.1927605,8.71509 -13.8601505,16.145287 -19.6840705,25.80566 -4.54029,7.531167 -10.31446,20.255533 -13.08292,28.831308 -5.52137,17.10332 -7.6616,34.33118 -6.84093,55.06899 0.93522,23.63197 8.14381,47.40453 20.62458,68.01704 4.36133,7.20291 9.69849,14.57696 10.28723,14.21309 0.18169,-0.11229 0.24954,0.007 0.15038,0.26561 -0.24508,0.63868 6.1725005,8.10009 11.7321005,13.64 14.6130095,14.5613 30.8442595,25.60135 49.2838095,33.52198 13.81636,5.93477 27.8538,9.36392 45.89074,11.21017 3.63718,0.3723 23.98659,-0.0948 28.61427,-0.65681 17.4364,-2.11744 34.06596,-7.25189 49.30965,-15.22439 6.49788,-3.39841 8.69829,-4.74311 8.44135,-5.15886 -0.11014,-0.17823 0.0172,-0.2409 0.28267,-0.13901 0.26547,0.10188 1.28604,-0.33431 2.26808,-0.96945 6.0364,-3.90409 6.6703,-4.3852 6.21099,-4.71547 -0.32933,-0.2367 -0.26944,-0.27089 0.20412,-0.11679 0.77617,0.25259 3.58872,-1.70787 9.94771,-6.93394 5.07273,-4.16898 7.22484,-6.19971 6.98407,-6.58927 -0.10068,-0.1628 0.0363,-0.21187 0.30438,-0.10903 0.67076,0.25739 8.61226,-7.88753 8.35194,-8.56589 -0.10805,-0.28159 0.0942,-0.74043 0.44959,-1.01958 0.59122,-0.46435 0.60373,-0.45346 0.14521,0.13075 -0.27565,0.3512 -0.41838,0.7211 -0.3173,0.82217 0.48607,0.48607 8.01094,-8.62664 7.63106,-9.2413 -0.16487,-0.26673 -0.1119,-0.334 0.14005,-0.17828 0.24628,0.1522 1.37374,-1.06154 2.87424,-3.09387 11.52831,-15.61433 19.72882,-33.15315 24.53494,-52.47432 3.08398,-12.39799 4.1147,-22.37142 3.86901,-37.43234 -0.20668,-12.6692 -1.055,-20.26812 -3.31556,-29.69379 -0.28485,-1.18776 -0.86176,-3.61711 -1.28157,-5.39812 -1.04919,-4.45102 -4.59194,-15.010944 -6.64198,-19.79724 C 237.02209,76.630195 230.6322,65.91924 221.5716,54.624536 219.67927,52.26561 211.50775,43.240749 210.30821,42.184985 209.84461,41.776958 208.08877,40.170739 206.40612,38.615694 199.80435,32.514587 190.2494,25.354894 182.2908,20.545479 178.00143,17.95339 167.11009,12.541954 161.86104,10.394676 144.72757,3.3857553 125.60378,-0.11353142 104.36687,-0.12509442 Z M 101.22649,10.433434 c 2.52329,-0.04938 5.06993,-0.03709 7.63933,0.03669 12.02999,0.345425 22.13021,1.781382 33.29306,4.733044 4.16344,1.100889 6.27396,1.777662 12.95735,4.154787 2.75145,0.978624 7.15619,2.930968 11.33781,5.025533 3.20116,1.60346 5.23446,2.759777 10.96625,6.236311 5.23662,3.176193 13.40921,9.193694 18.90789,13.922148 4.37487,3.762047 11.74913,11.235411 14.74381,14.941724 2.50453,3.099716 2.88499,3.466523 3.32072,3.197221 0.1556,-0.0962 0.1997,0.04218 0.0977,0.307991 -0.102,0.26581 0.56811,1.448586 1.4888,2.628263 7.51998,9.63543 15.40903,24.642405 19.79052,37.646274 3.68572,10.93889 5.83858,21.20989 6.97477,33.27291 0.49693,5.27534 0.51736,17.93087 0.0377,23.50037 -2.25793,26.21907 -12.69157,51.93363 -29.66433,73.11182 -4.09277,5.10685 -5.71631,6.91831 -10.93422,12.19874 -2.03288,2.05723 -3.6959,3.81675 -3.6959,3.91035 0,0.0936 0.44522,-0.10108 0.9896,-0.43253 l 0.98961,-0.60255 -0.84698,0.73949 c -0.46603,0.40661 -0.98793,0.65233 -1.15962,0.54622 -0.17168,-0.1061 -1.65297,0.96982 -3.29179,2.39056 -1.63882,1.42073 -3.82036,3.22098 -4.84776,4.00079 -1.18583,0.90006 -1.79623,1.60498 -1.67122,1.93063 0.10826,0.28213 0.008,0.51314 -0.22272,0.51314 -0.23083,0 -0.3197,-0.16222 -0.19741,-0.36018 0.12235,-0.19796 0.0605,-0.35967 -0.13746,-0.35967 -0.19795,0 -0.45534,0.15434 -0.57206,0.34313 -0.33251,0.53801 -8.55729,6.10402 -13.32735,9.01909 -7.85839,4.80239 -19.95668,10.07418 -29.27108,12.75478 -7.78144,2.23943 -18.56007,4.1707 -27.23761,4.8798 v -5.1e-4 c -18.8908,1.54368 -37.55629,-0.42236 -54.16879,-5.70612 -9.5315,-3.03158 -19.46577,-7.42494 -28.43444,-12.57494 -6.81205,-3.91162 -17.5145,-11.84057 -24.00835,-17.78703 -8.0476395,-7.36926 -16.8765695,-17.86873 -23.06888,-27.43346 -2.4739,-3.82127 -3.21582,-4.79302 -2.83703,-3.71657 0.30724,0.87312 -0.005,0.78924 -0.49868,-0.13384 -0.28709,-0.53645 -0.29113,-0.69025 -0.0129,-0.51832 0.58391,0.36088 0.48067,-0.19475 -0.26407,-1.41748 -8.03609,-13.19384 -14.83369,-34.02333 -16.8553,-51.64956 -0.9088,-7.9238 -0.90833,-25.80719 10e-4,-33.11323 3.44608,-27.68671 14.65931,-52.402283 33.5566005,-73.96499 1.73488,-1.979596 3.30976,-3.702371 3.50005,-3.828707 0.19029,-0.126337 0.25494,-0.377018 0.14366,-0.557072 -0.11128,-0.180055 -0.0356,-0.56259 0.16795,-0.850077 0.28839,-0.407269 0.31874,-0.363991 0.13797,0.196887 -0.12958,0.40207 0.92811,-0.398684 2.39572,-1.813843 3.2313395,-3.115845 6.3700295,-5.96196 8.8645795,-8.038786 1.04024,-0.866047 1.80302,-1.663428 1.69498,-1.771468 -0.10803,-0.108035 -0.64133,0.195712 -1.18494,0.674894 l -0.98857,0.871265 0.88264,-1.000456 c 0.48539,-0.550223 1.09703,-0.918078 1.35909,-0.817521 0.26205,0.10056 1.81488,-0.825796 3.45043,-2.058789 9.15976,-6.905234 18.95894,-12.46558 30.12065,-17.09043 15.39344,-6.378274 31.92618,-9.741095 49.58921,-10.086723 z" /></g><g
       id="g4063"
       transform="matrix(0.36213217,0,0,0.36213217,219.7451,144.52614)"><path
         style="fill:#333333;fill-opacity:1"
         d="m -167.54398,65.933257 c -9.40676,-0.0722 -11.73543,-0.15921 -11.97461,-0.44741 -0.28098,-0.33855 1.55374,-3.39802 5.22764,-8.71734 0.88501,-1.28136 1.54846,-1.57363 0.72731,-0.32039 -0.24135,0.36834 -0.32503,0.66972 -0.18597,0.66972 0.28683,0 0.6524,-0.92298 0.68599,-1.73196 0.0277,-0.66821 6.81447,-10.63117 6.95491,-10.20986 0.0556,0.1669 0.22275,0.22829 0.37138,0.13643 0.17168,-0.1061 0.14316,-0.24555 -0.0782,-0.38237 -0.27673,-0.17102 -0.24687,-0.32761 0.14505,-0.76067 0.6039,-0.6673 1.25459,-0.69715 1.79407,-0.0823 0.69948,0.79719 12.71917,18.72019 13.83465,20.62935 0.27371,0.46847 0.4252,0.92422 0.33663,1.01279 -0.24702,0.24702 -5.06136,0.30208 -17.83883,0.204 z"
         id="path2578" /><path
         style="fill:#333333;fill-opacity:1"
         d="m -86.201142,165.56015 c -0.91699,-0.89343 -1.43275,-1.54198 -1.14615,-1.44123 0.28661,0.10075 0.42468,0.0876 0.30682,-0.0292 -0.11785,-0.11683 -0.47141,-0.21242 -0.78568,-0.21242 -0.33444,0 -0.54126,-0.14531 -0.4987,-0.35039 0.04,-0.19272 -0.0546,-0.27176 -0.21008,-0.17564 -0.15552,0.0961 -0.56924,-0.0129 -0.91936,-0.24234 -1.44325,-0.94566 -4.53949,-1.74517 -6.75842,-1.74517 h -2.16561 l 0.15525,-0.8599 c 2.24125,-12.41328 1.20425,-26.57821 -2.784408,-38.03385 -1.39881,-4.01745 -1.44492,-4.23333 -0.90413,-4.23333 1.69435,0 6.162768,3.66551 8.898768,7.29979 5.18913,6.89281 8.02079,13.09913 9.79231,21.46236 0.72833,3.43842 0.83314,4.4603 0.86278,8.4118 0.0249,3.31747 -0.0859,5.09178 -0.42208,6.76074 -0.59927,2.97494 -1.21456,5.01322 -1.51333,5.01322 -0.1324,0 -0.99099,-0.73098 -1.90798,-1.62441 z"
         id="path2488" /><path
         style="fill:#333333;fill-opacity:1"
         d="m -245.26044,167.51685 c -0.22709,-0.43915 -0.66848,-2.27115 -0.98086,-4.07111 -0.49207,-2.83537 -0.55078,-3.96206 -0.43938,-8.43204 0.15589,-6.25571 0.76719,-9.97332 2.47531,-15.05358 1.62924,-4.84567 3.75729,-8.98969 6.80768,-13.25683 1.60584,-2.24637 2.54188,-3.14681 3.14956,-3.02978 0.2935,0.0565 0.46204,0.0312 0.37452,-0.0563 -0.16516,-0.16516 1.15567,-1.3156 1.41476,-1.23225 0.0808,0.026 0.14687,-0.17131 0.14687,-0.43844 0,-0.38117 -0.22708,-0.26529 -1.05526,0.53855 -0.58039,0.56332 -1.12042,0.95657 -1.20007,0.87388 -0.23696,-0.24601 3.44631,-3.53481 4.87945,-4.35686 0.72915,-0.41825 1.65213,-0.76157 2.05106,-0.76294 l 0.72533,-0.002 -0.69217,1.78594 c -1.94999,5.0314 -3.29095,10.02918 -4.24169,15.80885 -0.73426,4.46364 -0.67925,15.30154 0.10428,20.54879 0.31866,2.13401 0.65664,4.18784 0.75106,4.56406 l 0.17168,0.68403 h -2.23622 c -3.4025,0 -6.3967,1.22704 -8.63829,3.54003 -0.69739,0.7196 -1.06379,0.90246 -1.65767,0.8273 -0.41932,-0.0531 -0.70236,6.5e-4 -0.62899,0.11936 0.0734,0.11872 -0.0439,0.36298 -0.26056,0.54281 -0.21668,0.17982 -0.3902,0.46121 -0.38561,0.62529 0.005,0.16408 0.30837,-0.0428 0.67503,-0.4598 0.36667,-0.41698 0.74391,-0.6809 0.83831,-0.5865 0.0944,0.0944 -0.25741,0.60069 -0.7818,1.12508 l -0.95344,0.95344 z"
         id="path2404" /><path
         style="fill:#333333;fill-opacity:1"
         d="m -110.24172,173.38326 c -2.56028,-1.90894 -5.43797,-3.09852 -8.5449,-3.53229 -0.99773,-0.1393 -1.86778,-0.30699 -1.93343,-0.37264 -0.0657,-0.0657 0.294,-0.76555 0.79922,-1.55534 1.30598,-2.04157 4.20776,-7.64605 5.21819,-10.07839 0.61275,-1.47502 0.92791,-1.9657 1.10462,-1.71979 0.17574,0.24455 0.20103,0.20195 0.0874,-0.14728 -0.0879,-0.27033 0.24848,-1.63902 0.74787,-3.04271 0.49923,-1.40325 1.29276,-3.80151 1.76342,-5.32948 0.47065,-1.52797 0.9535,-2.88842 1.073,-3.02323 0.80181,-0.90451 3.8786,5.55942 4.89067,10.27464 1.22311,5.69849 -0.78957,15.93768 -3.65822,18.61065 l -0.63787,0.59436 z"
         id="path2354" /><path
         style="fill:#333333;fill-opacity:1"
         d="m -220.94414,173.70293 c -1.04598,-1.37134 -2.16909,-3.85766 -2.9085,-6.43878 -2.42733,-8.47325 -2.06833,-14.09755 1.35118,-21.16803 1.11551,-2.30653 2.5904,-4.08028 2.99257,-3.59896 0.098,0.11734 0.32744,0.97544 0.50977,1.90689 1.30636,6.67371 4.96429,15.89855 8.76838,22.11276 1.01456,1.65734 1.84465,3.08088 1.84465,3.16342 0,0.0825 -0.47776,0.15007 -1.06168,0.15007 -2.39151,0 -6.78155,1.74343 -9.25707,3.67631 -1.47846,1.15436 -1.50668,1.15684 -2.2393,0.19632 z"
         id="path2305" /><path
         style="fill:#333333;fill-opacity:1"
         d="m -151.50068,176.31425 c 0,-0.0664 0.30782,-0.32248 0.68404,-0.56899 0.58441,-0.38292 0.72292,-0.39344 0.951,-0.0722 0.21543,0.30339 0.2392,0.28915 0.12312,-0.0738 -0.17013,-0.53191 1.48723,-1.6859 1.98206,-1.38007 0.18767,0.11598 0.2397,0.0776 0.13168,-0.0972 -0.22946,-0.37127 2.12776,-2.01938 3.00727,-2.1026 1.13263,-0.10717 1.23472,-0.14966 1.23472,-0.51391 0,-0.27806 -0.13781,-0.26402 -0.64032,0.0652 -1.20969,0.79262 -0.83706,0.22088 0.57462,-0.88165 9.89084,-7.72484 16.67708,-19.62029 18.1326,-31.78422 1.75607,-14.67559 -3.29418,-29.31882 -13.45028,-38.999153 -7.22108,-6.88282 -17.82786,-10.70003 -27.73148,-9.98012 -1.86316,0.13543 -3.98288,0.36168 -4.71049,0.50276 -4.84164,0.93882 -10.7239,3.7467 -14.84391,7.0857 -1.10559,0.89601 -1.6102,1.12414 -1.2704,0.57434 0.1179,-0.19078 0.0725,-0.23358 -0.12099,-0.11401 -0.17038,0.1053 -0.2345,0.31326 -0.14249,0.46214 0.18055,0.29214 -1.71635,1.989163 -2.08913,1.868993 -0.12404,-0.04 -0.1531,0.0445 -0.0646,0.18772 0.0885,0.14324 -0.23955,0.71173 -0.72905,1.26333 -2.91928,3.28961 -5.57557,7.822 -6.87413,11.72924 -1.17018,3.52094 -1.59273,6.1919 -1.5889,10.04345 0.006,5.83557 1.44612,10.90406 4.51122,15.875 1.47812,2.39721 5.67713,6.65812 7.77106,7.88562 2.83914,1.66436 6.78029,3.25631 9.41231,3.80192 3.25022,0.67376 8.89258,0.5531 11.84983,-0.25341 6.13388,-1.67286 11.42179,-6.30087 13.49614,-11.8119 1.56952,-4.16983 1.76418,-7.5743 0.68078,-11.90629 -1.33368,-5.33273 -4.30537,-8.90965 -9.10076,-10.95425 -1.39903,-0.5965 -2.00142,-0.69538 -4.15012,-0.68121 -2.04729,0.0135 -2.75675,0.12987 -3.82466,0.62738 -1.81773,0.84683 -4.01768,3.01076 -4.96148,4.88022 -0.71969,1.42554 -0.78154,1.75546 -0.69811,3.72387 0.0772,1.82253 0.20497,2.3311 0.81802,3.25715 1.37537,2.0776 3.71941,2.62106 7.1514,1.65805 1.76322,-0.49476 2.14594,-0.52636 2.77241,-0.22892 2.36871,1.12467 1.98929,5.58226 -0.71208,8.36584 -1.95537,2.01487 -4.86469,2.86531 -8.87988,2.59573 -4.25193,-0.28549 -7.06246,-1.50104 -9.81741,-4.24605 -3.42835,-3.41598 -5.11027,-8.1785 -4.77114,-13.50998 0.26237,-4.12463 0.96629,-6.43019 2.93772,-9.62187 1.5085,-2.44222 1.42214,-2.34864 1.74629,-1.89231 0.22603,0.31819 0.25091,0.28574 0.1255,-0.16365 -0.27784,-0.99571 3.47129,-4.14763 7.13321,-5.99693 7.79076,-3.93441 17.54235,-3.27154 25.12754,1.70806 11.49591,7.54695 16.76985,23.20051 12.30579,36.52481 -1.6606,4.95659 -4.18333,8.91245 -8.31998,13.04652 -5.24044,5.23718 -10.63445,8.09718 -18.01045,9.54948 -3.23166,0.6363 -10.9039,0.64146 -14.32655,0.01 -3.04652,-0.56239 -7.78974,-2.00846 -10.03648,-3.05983 -3.9593,-1.85279 -9.84287,-5.80992 -9.4892,-6.38218 0.0852,-0.13788 -0.0136,-0.18603 -0.21955,-0.10699 -0.55935,0.21464 -5.73146,-5.38674 -7.71178,-8.35185 -5.50672,-8.24516 -8.42056,-18.07589 -7.99912,-26.9875 0.0791,-1.67349 0.44101,-4.47146 0.80417,-6.21771 3.9136,-18.818893 19.08412,-33.763533 38.4591,-37.886473 3.08086,-0.6556 3.88487,-0.7198 8.94151,-0.71406 6.46824,0.007 9.72535,0.47039 15.34583,2.18165 4.14281,1.26135 6.53677,2.24337 10.07712,4.13371 7.83937,4.18577 13.45639,9.31256 18.55914,16.93935 8.25767,12.342253 11.13902,26.211093 8.13543,39.158323 -1.31104,5.65134 -4.93091,13.74584 -8.62721,19.29156 -2.01958,3.03007 -5.68861,7.39122 -6.03705,7.17587 -0.12075,-0.0746 -0.20323,0.0692 -0.18328,0.31951 0.0227,0.28475 -0.16604,0.46732 -0.504,0.48755 -0.64127,0.0384 -1.81071,0.62522 -1.62201,0.81392 0.0726,0.0726 0.46974,-0.0695 0.88255,-0.3158 0.44895,-0.26786 0.1512,0.13316 -0.74097,0.99795 -4.95302,4.80099 -12.61662,8.34085 -19.60899,9.05752 -0.69122,0.0709 -1.25677,0.0745 -1.25677,0.008 z"
         id="path1593" /><path
         style="fill:#333333;fill-opacity:1"
         d="m -176.83453,200.61197 c -0.1819,-0.0734 -0.33073,-0.36468 -0.33073,-0.6473 0,-0.53835 7.49153,-15.57331 9.80681,-19.68156 1.57121,-2.78797 2.00937,-3.32637 2.54101,-3.12236 0.46952,0.18017 11.46468,22.30507 11.46468,23.06968 0,0.12956 -0.18833,0.30784 -0.41852,0.39617 -0.49976,0.19178 -22.58644,0.17777 -23.06325,-0.0146 z"
         id="path1555" /><path
         style="fill:#333333;fill-opacity:1"
         d="m -134.69964,219.91078 c -1.80207,-0.43779 -3.16438,-2.45839 -4.66103,-6.91326 -1.73722,-5.17099 -2.35755,-10.00825 -1.83855,-14.33683 0.54263,-4.52564 1.84434,-8.17047 3.4174,-9.56883 0.37671,-0.33487 0.52512,-0.40049 0.3298,-0.14583 -0.23609,0.30782 -0.25558,0.46302 -0.0581,0.46302 0.27392,0 0.40935,-0.3624 0.32503,-0.86976 -0.06,-0.36093 1.41103,-1.50252 1.77163,-1.37489 0.18946,0.0671 0.28171,0.0204 0.205,-0.10375 -0.19752,-0.3196 2.43457,-2.48159 2.76932,-2.2747 0.15195,0.0939 0.44167,0.0335 0.64384,-0.13432 0.28202,-0.23406 0.54106,-0.20387 1.11289,0.12968 0.70082,0.40879 0.7104,0.40833 0.16048,-0.008 -0.5587,-0.42259 -0.56535,-0.47372 -0.14883,-1.14465 0.39977,-0.64395 0.35939,-0.63086 -0.4861,0.1576 -1.89851,1.77045 -1.30588,0.77401 0.86548,-1.4552 1.24026,-1.27331 2.46545,-2.64151 2.72265,-3.04044 0.2572,-0.39893 0.55384,-0.67206 0.65918,-0.60695 0.10535,0.0651 0.19155,-0.0472 0.19155,-0.24961 0,-0.53504 1.90029,-3.2341 3.1309,-4.44695 1.31922,-1.30018 2.4025,-1.77726 4.0264,-1.77323 4.40629,0.0109 8.54131,2.95621 8.54131,6.08376 0,1.57165 -3.56614,9.65008 -4.80825,10.89218 -0.25526,0.25527 -0.35289,0.53286 -0.21695,0.61688 0.33949,0.20982 1.53845,-0.444 2.8996,-1.5812 1.21662,-1.01646 1.74531,-1.0601 0.9113,-0.0752 l -0.50549,0.59693 0.60464,-0.51247 c 0.33256,-0.28186 0.5391,-0.68329 0.45898,-0.89207 -0.0832,-0.21688 0.28238,-0.8478 0.85295,-1.4719 0.54924,-0.60077 1.33765,-1.50902 1.75202,-2.01835 0.41437,-0.50932 0.68119,-0.71768 0.59293,-0.46302 -0.49068,1.41576 -0.48942,1.40914 -0.18949,0.99219 0.24165,-0.33593 0.28673,-0.31562 0.29359,0.13229 0.006,0.40022 0.0638,0.44128 0.23661,0.1685 0.19292,-0.3045 0.24989,-0.3045 0.36586,0 0.13998,0.36757 0.19654,0.0182 0.23042,-1.42352 0.0102,-0.43571 0.12793,-0.65733 0.29443,-0.55443 0.16319,0.10086 0.19856,0.0439 0.0859,-0.13836 -0.25714,-0.41606 -0.75769,-0.0809 -0.57811,0.38707 0.16467,0.42913 -0.0676,1.16387 -0.36788,1.16387 -0.46651,0 -0.0759,-1.5609 0.69755,-2.78707 1.0646,-1.68786 3.05433,-5.2796 3.58606,-6.47335 0.87509,-1.9646 1.80219,-4.18457 2.59596,-6.21614 0.98956,-2.53269 1.876578,-3.76599 3.066028,-4.26297 3.51745,-1.46969 9.71759,1.73216 11.7739,6.08021 0.98428,2.08127 1.16751,3.47983 0.77483,5.91408 -0.42646,2.64356 -4.39589,14.42974 -5.79613,17.21003 -1.26726,2.51626 -3.35783,4.78172 -5.69817,6.17486 -1.36185,0.81067 -1.62569,1.12551 -2.74695,3.27805 -1.012118,1.94301 -1.752908,2.89882 -4.025178,5.19349 -4.68445,4.73064 -9.07743,7.24193 -17.98889,10.2835 -3.12074,1.06514 -10.7723,1.89915 -12.83229,1.3987 z"
         id="path1124" /><path
         style="fill:#333333;fill-opacity:1"
         d="m -198.99338,219.91873 c -6.99869,-0.91025 -14.316,-3.59116 -20.10834,-7.36729 -4.95415,-3.22971 -8.24497,-6.73433 -9.94397,-10.59005 -0.75615,-1.71601 -0.93269,-1.92 -2.16994,-2.50741 -2.159,-1.02503 -3.91482,-2.95245 -5.30418,-5.82259 -1.05666,-2.18285 -3.30811,-8.26695 -5.36531,-14.49872 -1.75204,-5.30737 -1.19508,-8.71754 1.94264,-11.89437 1.57496,-1.59459 3.52032,-2.5879 5.88364,-3.00419 1.36503,-0.24044 1.80866,-0.21507 2.7895,0.15951 1.42254,0.54328 1.91715,1.28878 3.1858,4.80183 2.62875,7.27931 8.2111,16.30749 11.85627,19.17478 0.76358,0.60063 1.2563,0.52213 0.72687,-0.1158 -0.74403,-0.8965 -3.20444,-7.7747 -3.20444,-8.95818 0,-1.27201 1.19456,-3.50517 2.3359,-4.36684 2.25445,-1.70203 4.94119,-2.71774 7.1889,-2.71774 2.43067,0 3.42103,0.69614 6.41634,4.51017 2.4507,3.12056 2.99407,3.97209 2.24896,3.52444 -0.23583,-0.14168 -0.22929,-0.0736 0.0228,0.23738 0.19443,0.23984 0.27728,0.55941 0.18412,0.71015 -0.0932,0.15075 -0.0518,0.48339 0.092,0.7392 0.20166,0.35886 0.24357,0.23844 0.18347,-0.52707 -0.0428,-0.54571 -0.0476,-0.99219 -0.0106,-0.99219 0.037,0 0.7671,0.68461 1.6224,1.52135 0.85531,0.83675 2.50508,2.28453 3.66617,3.21729 2.41248,1.93808 4.88918,4.2655 4.88918,4.5945 0,0.1227 -0.13746,0.13814 -0.30546,0.0343 -0.19078,-0.11791 -0.23358,-0.0725 -0.11401,0.12099 0.1053,0.17038 0.3051,0.23954 0.44401,0.15369 0.64609,-0.3993 2.19639,4.91333 2.61675,8.96723 0.40207,3.87741 -0.34549,8.26468 -2.40284,14.10175 -2.01881,5.72772 -3.27535,7.01401 -6.77635,6.93675 -0.98806,-0.0218 -2.15366,-0.0861 -2.59022,-0.14287 z"
         id="path656" /><path
         style="fill:#333333;fill-opacity:1"
         d="m -166.28101,231.28026 c -2.20044,-4.38954 -7.91722,-17.34564 -9.04891,-20.50781 -0.68494,-1.91384 -1.06219,-1.85905 12.4736,-1.81166 l 8.09122,0.0283 0.33104,0.61855 c 0.29132,0.54433 0.17283,1.01263 -0.98743,3.90261 -0.72516,1.80622 -2.3534,5.60576 -3.61832,8.44342 -3.64133,8.1688 -5.32475,11.37708 -5.96968,11.37708 -0.13399,0 -0.70617,-0.92273 -1.27152,-2.05052 z"
         id="path615" /><path
         id="path614"
         style="fill:#333333;fill-opacity:1"
         d="m -164.65589,9.5150723 c -0.71226,0.18626 -3.32233,2.6088197 -3.07836,2.8571897 0.1055,0.1074 0.40315,-0.03568 0.66145,-0.31781 0.25842,-0.28214 0.36972,-0.363764 0.24805,-0.181384 -0.1216,0.18239 -0.15059,0.4453 -0.0646,0.58446 0.0868,0.14034 -0.12904,0.222035 -0.48473,0.182935 -0.51073,-0.05606 -1.12981,0.455397 -3.04374,2.516125 -1.46503,1.577399 -2.34596,2.732997 -2.25826,2.961577 0.0791,0.206169 -0.0402,0.527518 -0.2651,0.714168 -0.47909,0.397619 -0.55722,-3.72e-4 -0.0915,-0.466122 0.17463,-0.174619 0.2425,-0.317293 0.1509,-0.317293 -0.0916,0 -0.85931,0.742736 -1.70636,1.651062 -0.84704,0.908331 -2.96871,3.12937 -4.71496,4.935099 -3.65764,3.782228 -3.83695,3.974155 -4.35322,4.67 -0.24907,0.335707 -0.26068,0.408788 -0.0336,0.207739 0.19261,-0.170548 0.50229,-0.251741 0.68833,-0.180351 0.20499,0.07867 0.32227,-0.05977 0.29817,-0.351399 -0.0257,-0.310841 0.12606,-0.468181 0.4284,-0.443901 0.25744,0.02067 0.43608,-0.107444 0.39688,-0.284737 -0.0392,-0.177293 0.4347,-0.823617 1.05316,-1.436605 0.61846,-0.612986 1.125,-1.003199 1.125,-0.86713 0,0.136068 -0.44475,0.63763 -0.98806,1.11466 -0.54331,0.47703 -0.99018,1.054892 -0.99218,1.28416 -0.002,0.235115 -0.20833,0.400505 -0.47233,0.379305 -0.29757,-0.02389 -0.44217,0.120704 -0.39687,0.396875 0.0392,0.238953 -0.10728,0.450655 -0.32556,0.470255 -0.21828,0.0196 -0.51646,0.06307 -0.66198,0.09663 -0.14552,0.03357 -0.38313,0.08263 -0.52865,0.109554 -0.32896,0.06085 -29.80985,29.567922 -29.67571,29.702063 0.0535,0.05352 0.61483,-0.437063 1.24747,-1.089856 0.63264,-0.652794 1.20604,-1.131254 1.27434,-1.062984 0.0683,0.06827 -0.16399,0.431201 -0.51624,0.806152 -0.35225,0.374952 -0.64027,0.761443 -0.64027,0.858863 0,0.09739 -0.10189,0.143292 -0.22635,0.101802 -0.12446,-0.04149 -0.38478,0.05595 -0.57826,0.216524 -0.42014,0.348651 -0.37192,1.711007 0.0605,1.711007 0.16668,0 0.39211,0.0893 0.50126,0.198438 0.10914,0.109137 0.045,0.198437 -0.14263,0.198437 -0.27319,0 -0.2757,0.079 -0.0119,0.396875 0.18118,0.218281 0.25545,0.396875 0.16485,0.396875 h -0.36328 c -0.10914,0 -0.21331,-0.119062 -0.23151,-0.264583 -0.0182,-0.145521 -0.0516,-0.413412 -0.0744,-0.595313 -0.028,-0.222796 -0.1495,-0.188802 -0.37258,0.104387 -0.28743,0.377762 -0.39803,0.386492 -0.83613,0.06614 -0.27761,-0.202993 -0.35556,-0.368969 -0.17363,-0.368969 0.18214,0 0.24584,-0.137054 0.14211,-0.304891 -0.10358,-0.167597 0.0298,-0.464173 0.2961,-0.658875 0.26629,-0.194701 0.39869,-0.438985 0.29456,-0.543119 -0.23404,-0.234038 -14.8113,14.266828 -20.6313,20.523295 -6.1064,6.564345 -9.628,10.836937 -14.40946,17.481613 -0.85568,1.189124 -1.08361,1.779181 -0.56275,1.457261 0.15624,-0.0966 0.0329,0.31756 -0.2744,0.919834 -0.30726,0.60229 -0.5028,1.18521 -0.4346,1.29553 0.0682,0.11032 -0.10298,0.21738 -0.37982,0.23823 -0.45861,0.0345 -0.44148,-0.055 0.18965,-1.00872 0.38097,-0.57569 0.63049,-1.108894 0.55449,-1.184934 -0.33471,-0.33471 -5.42009,8.317934 -7.552,12.849334 -1.98754,4.22455 -2.02477,4.30939 -3.18895,7.27604 -3.23859,8.2528 -5.7212,18.95397 -6.69055,28.83959 -0.44743,4.56296 -0.38514,12.79024 0.13126,17.3302 2.114,18.58545 8.84711,35.13629 20.23287,49.73599 3.44353,4.41554 8.57486,9.85332 9.10591,9.64954 0.19729,-0.0757 0.5894,0.13409 0.87126,0.46664 l 0.51212,0.60513 -0.59687,-0.50592 c -0.32831,-0.27805 -0.66087,-0.44138 -0.73897,-0.36328 -0.14545,0.14545 2.13776,2.39907 4.52841,4.47001 0.73729,0.63868 1.92174,1.66801 2.63188,2.2872 0.80529,0.70216 1.45685,1.0736 1.73116,0.9865 0.24547,-0.0779 0.59647,0.0674 0.79478,0.32918 0.30287,0.3998 0.30067,0.42043 -0.0155,0.13849 -0.42655,-0.38041 -0.89613,-0.44584 -0.67903,-0.0946 0.18394,0.29763 5.7213,4.4766 7.2254,5.45289 0.92281,0.59898 1.19359,0.6694 1.52135,0.39739 0.27466,-0.22791 0.39843,-0.23815 0.39843,-0.0336 0,0.16334 -0.12598,0.29714 -0.28009,0.29714 -0.59382,0 0.13596,0.56707 2.99982,2.33268 15.3386,9.45645 28.00395,14.29024 43.05318,16.43052 2.11006,0.30009 4.43177,0.59281 5.15938,0.65061 3.2217,0.256 11.23425,-0.081 14.81667,-0.62322 7.04458,-1.06617 14.49859,-3.11167 21.43125,-5.8813 4.80285,-1.91875 14.77778,-6.72384 14.5898,-7.02799 -0.2072,-0.33525 0.12594,-0.66693 1.32137,-1.31723 1.64157,-0.89298 1.76034,-0.70556 0.14831,0.23409 -0.77175,0.44984 -1.34417,0.87688 -1.27227,0.94878 0.2115,0.2115 3.09105,-1.53417 2.93832,-1.78129 -0.0766,-0.12395 1.5e-4,-0.31121 0.17053,-0.41651 0.19349,-0.11957 0.23883,-0.0771 0.12092,0.11369 -0.45439,0.73523 0.6865,0.1298 4.57647,-2.42931 8.4389,-5.55172 14.411159,-10.47359 20.300569,-16.72921 9.60612,-10.20345 15.98493,-19.74464 20.71036,-30.97899 5.62007,-13.36126 7.71104,-24.37085 7.35253,-38.71133 -0.31425,-12.56999 -2.34499,-23.0281 -6.78357,-34.93482 -2.6077,-6.99527 -8.80966,-18.83802 -9.60717,-18.34513 -0.1664,0.10283 -0.1964,0.0412 -0.07544,-0.15452 0.22606,-0.36577 -3.18352,-5.676945 -3.51348,-5.473022 -0.11146,0.06889 -0.37519,0.01587 -0.58653,-0.117822 -0.26367,-0.166805 -0.2807,-0.24473 -0.05374,-0.24753 0.71747,-0.0088 0.66847,-0.08235 -3.88556,-5.824451 -2.62902,-3.314893 -3.99503,-4.7879 -4.27777,-4.613155 -0.12701,0.07849 -0.173,-0.0126 -0.1018,-0.202055 0.07211,-0.191966 -1.47399,-2.042656 -3.4923,-4.180623 -3.32297,-3.519995 -5.25343,-5.37299 -4.75061,-4.559412 0.11402,0.184423 0.07203,0.326078 -0.09664,0.326078 -0.16801,0 -0.23099,-0.210703 -0.14469,-0.482657 0.11732,-0.369638 -1.378979,-1.993757 -6.398579,-6.946863 -10.44202,-10.303709 -12.30362,-12.050723 -12.438,-11.668539 -0.0871,0.247768 -0.23786,0.185128 -0.51883,-0.216007 -0.22374,-0.319436 -0.56284,-0.501639 -0.77928,-0.418579 -0.22631,0.08685 -0.31292,0.03308 -0.21136,-0.131258 0.0946,-0.153023 -0.0419,-0.514199 -0.30334,-0.803052 -0.26141,-0.288853 -0.4999,-0.693961 -0.5302,-0.900204 -0.0657,-0.44738 -1.98605,-2.258909 -2.23293,-2.106331 -0.0946,0.05849 -0.51017,-0.246607 -0.92346,-0.677995 -0.41335,-0.431387 -0.64269,-0.783931 -0.50953,-0.783931 0.13315,0 -0.7663,-1.014111 -1.99885,-2.253093 -1.23255,-1.238982 -2.38491,-2.197502 -2.56056,-2.130102 -0.17565,0.06741 -0.26237,-0.02458 -0.19327,-0.204639 0.15448,-0.402588 -1.3921,-1.93431 -1.67122,-1.655196 -0.11043,0.11043 -0.0222,0.339527 0.19585,0.50953 0.21805,0.170002 0.57161,0.547667 0.78549,0.838708 0.27347,0.372139 0.16813,0.332882 -0.35502,-0.132292 -0.85983,-0.764517 -1.50517,-1.780513 -0.92036,-1.449007 0.19642,0.111342 -0.16875,-0.345371 -0.81132,-1.014925 -0.64256,-0.669554 -1.28599,-1.144679 -1.42989,-1.055749 -0.14388,0.08894 -0.19045,0.04634 -0.10335,-0.09457 0.0871,-0.140912 -2.70798,-3.106053 -6.21151,-6.589262 -3.50352,-3.483209 -6.29612,-6.118709 -6.20582,-5.85649 0.10314,0.299565 0.0604,0.41243 -0.11524,0.303857 -0.15379,-0.09504 -0.21682,-0.337617 -0.13952,-0.538985 0.17279,-0.450285 -1.52463,-2.360222 -1.89446,-2.131653 -0.14659,0.09061 -0.25038,0.002 -0.23048,-0.19637 0.02,-0.198416 -0.72117,-1.152804 -1.64693,-2.121318 -1.45616,-1.523425 -1.74165,-1.715584 -2.11666,-1.422652 -0.38639,0.301857 -0.394,0.288752 -0.0703,-0.124024 0.33465,-0.426716 0.23289,-0.583315 -0.31678,-0.487825 -0.12,0.02084 -0.14187,-0.08575 -0.0486,-0.236678 0.16315,-0.263979 -1.75595,-2.384351 -2.15801,-2.384351 -0.10797,0 0.27433,0.504875 0.84956,1.122412 0.98846,1.061146 0.99576,1.079306 0.12454,0.330729 -1.14537,-0.984142 -1.33147,-1.232815 -1.14515,-1.534273 0.0811,-0.13121 -0.73553,-1.149218 -1.81488,-2.261877 -1.07935,-1.112669 -2.60028,-2.736997 -3.38015,-3.610116 -3.4093,-3.817006 -4.79595,-5.1049904 -5.34283,-4.9619707 z m -0.0579,21.5087647 c 0.25667,-0.0085 3.858,4.272773 6.22133,7.395931 0.73808,0.975383 5.28698,6.82756 7.14375,9.190653 0.59774,0.760735 1.20868,1.307947 1.35754,1.215947 0.1566,-0.09683 0.18996,-0.03682 0.0791,0.142627 -0.19193,0.310534 1.59432,2.752381 5.25188,7.179923 3.46111,4.189729 10.28217,11.641667 10.6562,11.641667 0.10034,0 0.0397,-0.142668 -0.13488,-0.317293 -0.17463,-0.174625 -0.31781,-0.42171 -0.31781,-0.549321 0,-0.12761 0.35719,0.125161 0.79375,0.561723 0.43656,0.436562 0.79375,0.870966 0.79375,0.965316 0,0.09435 -0.19279,-0.02123 -0.4284,-0.256832 -0.2356,-0.235605 -0.48585,-0.37093 -0.55655,-0.30024 -0.11489,0.114894 2.46592,2.657037 7.27087,7.160803 0.91058,0.853502 1.73363,1.473917 1.82883,1.378727 0.0952,-0.09519 -0.17369,-0.485486 -0.59738,-0.86713 -0.42366,-0.381646 -0.5919,-0.60243 -0.37362,-0.490926 0.78094,0.398924 1.59214,1.280641 1.32809,1.443839 -0.14599,0.09022 0.21456,0.632997 0.8015,1.206128 0.74262,0.725126 1.1274,0.944424 1.26555,0.720886 0.14257,-0.230682 0.40838,-0.126848 0.9431,0.36897 0.59356,0.550377 0.79064,0.616743 0.96996,0.326595 0.16284,-0.263551 0.21269,-0.206071 0.18139,0.20929 -0.0464,0.616612 -0.25985,0.568783 -1.18908,-0.267684 -0.32685,-0.294216 -0.66067,-0.468477 -0.74207,-0.387057 -0.0814,0.08142 1.43618,1.55827 3.3724,3.281971 13.87476,12.351747 20.341149,18.95727 26.257319,26.82263 1.57291,2.09119 1.87303,2.41486 1.64641,1.7725 -0.10605,-0.30057 -0.06464,-0.4128 0.11162,-0.30386 0.15376,0.095 0.21642,0.33649 0.13952,0.53692 -0.07692,0.20043 0.67149,1.64679 1.66295,3.21427 5.32534,8.41929 8.875,16.49395 11.15023,25.36435 1.00898,3.93371 1.18062,4.78077 2.03191,10.02936 0.64865,3.99925 0.63262,16.09992 -0.02687,20.37292 -1.26347,8.18633 -4.27951,17.66029 -7.94732,24.96333 -1.74969,3.48384 -5.01945,8.83006 -6.57789,10.75542 -0.11779,0.14552 -0.65492,0.862 -1.19373,1.59163 -0.53881,0.72964 -1.54513,2.02026 -2.23655,2.86856 -0.69142,0.84829 -1.17906,1.66871 -1.08366,1.82314 0.10027,0.1622 0.04804,0.20368 -0.1235,0.0977 -0.16998,-0.10506 -0.71568,0.30158 -1.27693,0.95137 -4.006169,4.63819 -10.734389,10.4233 -17.822679,15.32464 -1.89245,1.30859 -7.49619,4.72736 -7.74837,4.72736 -0.0873,0 -0.61194,0.26789 -1.16582,0.59531 -2.35758,1.39368 -9.70124,4.46071 -13.97227,5.83531 -3.00431,0.96691 -7.11283,2.05027 -9.65729,2.54661 -0.80037,0.15612 -2.05053,0.40499 -2.77813,0.55294 -0.7276,0.14795 -2.8112,0.44941 -4.63021,0.66973 -3.19755,0.38727 -13.57026,0.69924 -16.27187,0.48937 -5.67063,-0.44052 -11.44431,-1.34217 -16.13958,-2.52026 -19.15222,-4.80547 -37.00951,-15.98086 -48.61047,-30.4214 -1.46766,-1.82691 -1.95241,-2.26323 -2.45412,-2.20813 -0.47299,0.052 -0.58664,-0.0322 -0.46612,-0.34623 0.11369,-0.29623 0.059,-0.35304 -0.1912,-0.19844 -0.23314,0.14409 -0.28684,0.11437 -0.16123,-0.0889 0.10384,-0.168 0.0626,-0.30593 -0.0915,-0.30593 -0.15411,0 -0.27682,-0.14883 -0.27182,-0.33073 0.005,-0.1819 0.30823,0.0109 0.6749,0.42788 0.36666,0.41698 0.74089,0.68331 0.83199,0.59221 0.0911,-0.0911 -0.13,-0.49171 -0.49145,-0.89038 -1.32255,-1.4587 -3.43906,-4.5491 -5.38933,-7.86877 -4.19685,-7.1437 -7.90205,-16.51157 -9.52293,-24.07708 -2.9666,-13.84665 -1.94203,-28.13638 3.05459,-42.59792 0.75418,-2.18281 1.61133,-4.50454 1.90479,-5.15938 3.50566,-7.8228 6.67944,-13.20722 11.90677,-20.2029 1.28949,-1.7257 2.26923,-3.21313 2.17713,-3.30522 -0.0921,-0.0921 -0.28346,0.0401 -0.4253,0.29352 -0.14184,0.25345 -0.401,0.45902 -0.57567,0.45682 -0.21232,-0.003 -0.1967,-0.0808 0.047,-0.23513 0.20014,-0.12702 0.28899,-0.35272 0.19689,-0.50178 -0.10108,-0.16354 0.0974,-0.24214 0.50023,-0.19792 0.55563,0.061 1.11557,-0.43342 3.33778,-2.94865 1.46847,-1.662104 2.5905,-3.101135 2.4939,-3.197725 -0.0966,-0.0966 -0.2863,-6.4e-4 -0.42168,0.213417 -0.15709,0.24841 -0.24711,0.27284 -0.25011,0.0677 -0.002,-0.176777 0.24847,-0.456507 0.55707,-0.621667 0.39436,-0.211037 0.50777,-0.213807 0.38137,-0.009 -0.38707,0.626287 0.32267,0.24374 1.17047,-0.630964 1.04696,-1.080186 0.95247,-1.459394 -0.15399,-0.617527 -0.4224,0.321377 -0.0559,-0.15329 0.81494,-1.054719 0.87079,-0.901431 1.63853,-1.639177 1.70583,-1.639177 0.0673,0 -0.27998,0.415282 -0.77152,0.922425 -0.49154,0.507142 -0.8286,0.987328 -0.7488,1.067118 0.24115,0.24115 2.07997,-1.755212 1.89394,-2.056205 -0.10343,-0.16736 -0.0454,-0.200885 0.14418,-0.08372 0.19724,0.121899 1.185,-0.640878 2.62051,-2.023649 1.2672,-1.220642 3.34454,-3.149542 4.61626,-4.286043 1.27173,-1.136502 2.24756,-2.170648 2.16886,-2.298051 -0.0787,-0.1274 0.0297,-0.165243 0.24081,-0.08423 0.69163,0.265405 1.18525,-1.318051 0.56948,-1.826762 -0.15718,-0.129849 -0.10348,-0.171629 0.13229,-0.102319 0.21828,0.06418 0.635,-0.0022 0.92604,-0.147795 0.45025,-0.225257 0.43364,-0.160831 -0.11214,0.432532 -0.90183,0.980477 -0.35747,0.871695 0.68265,-0.136426 0.69387,-0.672511 0.80958,-0.929069 0.59686,-1.326534 -0.19636,-0.366894 -0.17662,-0.47529 0.078,-0.42323 0.18813,0.03846 0.32086,-0.05398 0.29456,-0.205672 -0.0263,-0.151692 0.21181,-0.29469 0.52916,-0.31781 0.55912,-0.04073 0.55651,-0.02695 -0.0806,0.455786 -0.36163,0.274 -0.57188,0.584123 -0.46716,0.688847 0.10472,0.104724 0.76055,-0.333626 1.45728,-0.974101 7.91124,-7.272443 11.14428,-10.395538 11.00139,-10.626741 -0.0941,-0.152281 -0.0508,-0.202411 0.0961,-0.111621 0.70097,0.433221 11.48515,-11.481428 18.99678,-20.987867 2.32832,-2.946655 4.62075,-5.829706 5.09374,-6.406844 0.47298,-0.577137 0.79105,-1.160224 0.70745,-1.295528 -0.0836,-0.135306 -0.009,-0.213106 0.16537,-0.173116 0.17452,0.03999 0.37773,-0.09292 0.45113,-0.295072 0.0896,-0.246537 0.0217,-0.298469 -0.20619,-0.157613 -0.22444,0.138723 -0.27478,0.104903 -0.14831,-0.09974 0.1053,-0.17037 0.29454,-0.245888 0.42065,-0.167948 0.12611,0.07794 1.27842,-1.188956 2.56108,-2.815332 1.28267,-1.626376 2.57029,-3.227623 2.86133,-3.55844 0.29105,-0.330816 0.94588,-1.14093 1.4552,-1.800406 0.50933,-0.659478 1.06205,-1.203729 1.22835,-1.209229 z" /></g></g></svg>
